<svg width="197" height="30" viewBox="0 0 197 30" fill="none" xmlns="http://www.w3.org/2000/svg">
<path fill-rule="evenodd" clip-rule="evenodd" d="M17.2925 9.02008C17.2658 8.41089 17.1066 7.81458 16.8257 7.27192C16.5448 6.72927 16.1489 6.25307 15.665 5.87589C14.7262 5.18762 13.3181 4.84309 11.4406 4.8423C7.97844 4.8423 6.24757 5.95899 6.24797 8.19238C6.24871 8.58861 6.34742 8.97863 6.53547 9.32838C6.72352 9.67814 6.99519 9.977 7.32676 10.1989C8.37573 10.8712 9.55018 11.3284 10.7807 11.5437C12.6578 11.9566 14.2859 12.3424 15.665 12.701C16.9538 13.03 18.2187 13.4445 19.4513 13.9417C20.0906 14.1873 20.702 14.4991 21.2753 14.8717C21.8429 15.2392 22.3357 15.7091 22.7279 16.257C23.15 16.8634 23.4695 17.5339 23.6739 18.242C23.9272 19.1578 24.0458 20.1049 24.0261 21.0542C24.0496 22.2823 23.7464 23.4949 23.1468 24.5703C22.5555 25.594 21.744 26.4765 20.7699 27.1552C19.6998 27.8916 18.5082 28.4377 17.2486 28.7689C15.8585 29.1459 14.4229 29.3335 12.9815 29.3265C8.72769 29.3265 5.53018 28.5545 3.38902 27.0106C1.24787 25.4666 0.118196 23.1783 0 20.1456H5.89579C5.89376 20.8076 6.05998 21.4594 6.37916 22.0411C6.69833 22.6228 7.16019 23.1156 7.72222 23.4742C9.04824 24.3277 10.6084 24.7542 12.1888 24.6953C14.1252 24.6953 15.5921 24.364 16.5893 23.7015C17.0543 23.422 17.4371 23.0267 17.6996 22.555C17.9621 22.0833 18.0951 21.5516 18.0852 21.0131C18.0895 20.6004 18.0301 20.1895 17.9091 19.7945C17.7783 19.4018 17.5428 19.0513 17.2276 18.78C16.8159 18.4344 16.3471 18.1618 15.8417 17.9743C15.0985 17.6962 14.3326 17.4816 13.5525 17.3328C11.3232 16.8929 9.39459 16.445 7.76669 15.9892C6.34726 15.6236 4.99032 15.0519 3.74001 14.2927C2.75506 13.6931 1.94997 12.8436 1.40814 11.8323C0.869302 10.6808 0.613314 9.41947 0.661099 8.15132C0.653973 7.05567 0.879193 5.97072 1.32219 4.96666C1.77573 3.95623 2.46937 3.0694 3.34395 2.3818C4.34774 1.60172 5.48888 1.01259 6.70954 0.644283C8.24339 0.188729 9.83951 -0.027679 11.4406 0.00282891C13.0482 -0.0179228 14.6499 0.198262 16.1933 0.644283C17.5065 1.02394 18.7374 1.64087 19.8239 2.46392C20.8171 3.22717 21.6223 4.2038 22.1786 5.32012C22.7451 6.4763 23.0596 7.73752 23.1017 9.02187L17.2925 9.02008Z" fill="#39639C"/>
<path fill-rule="evenodd" clip-rule="evenodd" d="M41.1888 24.4037C42.2417 24.41 43.2865 24.2207 44.2689 23.8455C45.231 23.4773 46.0961 22.8976 46.7991 22.1503C47.5664 21.3092 48.1437 20.3158 48.4927 19.2364C48.9308 17.8733 49.1393 16.4482 49.1099 15.0181C49.1099 11.7652 48.435 9.29738 47.0852 7.6146C45.7353 5.93183 43.7701 5.09083 41.1894 5.09163C38.6071 5.09163 36.6268 5.93262 35.2485 7.6146C33.8702 9.29659 33.1805 11.7638 33.1793 15.0163C33.1793 18.2692 33.876 20.6472 35.2696 22.1503C36.6631 23.6533 38.6361 24.4045 41.1888 24.4037ZM41.1888 29.3259C36.6709 29.3259 33.2017 28.085 30.7813 25.6033C28.3609 23.1216 27.1507 19.5513 27.1507 14.8926C27.1205 12.7744 27.4326 10.6652 28.075 8.64462C28.6292 6.90247 29.5601 5.30078 30.8029 3.95093C32.0267 2.65547 33.5316 1.652 35.204 1.01619C37.1169 0.309335 39.1474 -0.0338549 41.1888 0.00462026C43.2224 -0.0298233 45.2446 0.313284 47.1507 1.01619C48.8259 1.64475 50.3265 2.65813 51.5289 3.97295C52.7474 5.34913 53.6618 6.96227 54.2136 8.70888C54.8566 10.7497 55.1683 12.8787 55.1373 15.0163C55.1373 19.7584 53.9419 23.3287 51.5512 25.7271C49.1604 28.1255 45.7063 29.3251 41.1888 29.3259Z" fill="#39639C"/>
<path fill-rule="evenodd" clip-rule="evenodd" d="M91.1766 28.3756V5.71043H82.375V0.913208H106.138L101.837 5.71043H97.2936V28.3756H91.1766Z" fill="#00B8E0"/>
<path fill-rule="evenodd" clip-rule="evenodd" d="M106.256 28.3756V5.71162L110.559 0.913208H112.373V28.3756H106.256Z" fill="#00B8E0"/>
<path fill-rule="evenodd" clip-rule="evenodd" d="M134.747 28.3756L122.25 9.92927V28.3756H116.573V0.913208H123.041L134.658 18.5734V0.913208H140.378V28.3756H134.747Z" fill="#39639C"/>
<path fill-rule="evenodd" clip-rule="evenodd" d="M161.106 9.02006C161.078 8.41086 160.919 7.81463 160.638 7.27203C160.357 6.72943 159.961 6.25322 159.477 5.87586C158.538 5.1876 157.13 4.84307 155.253 4.84227C151.792 4.84227 150.061 5.95897 150.061 8.19236C150.061 8.58853 150.16 8.97851 150.348 9.32827C150.536 9.67802 150.807 9.97691 151.139 10.1988C152.188 10.8712 153.362 11.3285 154.593 11.5436C156.469 11.9566 158.097 12.3424 159.477 12.701C160.766 13.0302 162.031 13.4447 163.263 13.9416C163.903 14.1874 164.515 14.4994 165.089 14.8723C165.657 15.2398 166.15 15.7097 166.542 16.2575C166.963 16.8644 167.283 17.5347 167.488 18.2426C167.74 19.1585 167.858 20.1056 167.838 21.0548C167.862 22.2828 167.56 23.4955 166.96 24.5709C166.369 25.5948 165.557 26.4772 164.582 27.1557C163.513 27.8922 162.322 28.4382 161.062 28.7689C159.672 29.146 158.237 29.3336 156.795 29.3264C152.542 29.3264 149.344 28.5545 147.203 27.0105C145.061 25.4666 143.931 23.1783 143.811 20.1455H149.708C149.706 20.8073 149.872 21.4589 150.191 22.0405C150.51 22.6222 150.971 23.1152 151.532 23.4742C152.859 24.3274 154.419 24.7539 156 24.6952C157.937 24.6952 159.404 24.364 160.4 23.7015C160.865 23.4222 161.248 23.0269 161.511 22.5551C161.774 22.0834 161.907 21.5517 161.897 21.0131C161.9 20.6004 161.841 20.1896 161.721 19.7945C161.59 19.4018 161.354 19.0513 161.039 18.7799C160.627 18.4343 160.158 18.1617 159.652 17.9742C158.91 17.6964 158.145 17.4818 157.365 17.3328C155.134 16.8929 153.205 16.445 151.577 15.9892C150.158 15.6237 148.801 15.052 147.551 14.2927C146.565 13.6931 145.76 12.8436 145.217 11.8322C144.679 10.6808 144.423 9.41984 144.469 8.15189C144.462 7.05623 144.688 5.97128 145.131 4.96723C145.585 3.95671 146.28 3.06991 147.155 2.38237C148.159 1.60265 149.3 1.01357 150.52 0.644854C152.055 0.189042 153.651 -0.0275682 155.253 0.00280282C156.86 -0.0178722 158.462 0.198311 160.005 0.644257C161.318 1.02433 162.549 1.64122 163.636 2.46389C164.628 3.22747 165.433 4.20405 165.989 5.32009C166.556 6.47637 166.87 7.73753 166.913 9.02184L161.106 9.02006Z" fill="#39639C"/>
<path fill-rule="evenodd" clip-rule="evenodd" d="M182.975 7.07605H182.933L179.193 17.9939H186.629L182.975 7.07605ZM190.237 28.3785L188.389 22.712H177.608L175.541 28.3785H169.071L179.499 0.913208H186.583L196.881 28.3756L190.237 28.3785Z" fill="#39639C"/>
<path fill-rule="evenodd" clip-rule="evenodd" d="M64.7973 16.7943V28.3756H58.6809V11.9554H77.6466V16.7943H64.7973Z" fill="#39639C"/>
<path fill-rule="evenodd" clip-rule="evenodd" d="M58.6809 5.71043H79.4958V0.913208H58.6809V5.71043Z" fill="#39639C"/>
</svg>
